P3
6 8
255
255   0   0     0   0   0     0   0   0     0   0   0   255   0   0   255   0   0
  0   0   0     0   0   0     0   0   0     0   0   0     0   0   0   255   0   0
  0   0   0     0   0   0   255   0   0     0   0   0     0   0   0     0   0   0
  0   0   0     0   0   0   255   0   0     0   0   0     0   0   0     0   0   0
  0   0   0     0   0   0     0   0   0     0   0   0     0   0   0     0   0   0
  0   0   0     0   0   0     0  32   0     0   0   0     0   0   0     0  32   0
  0  32   0     0  32   0     0  32   0     0   0   0     0   0   0     0   0   0
  0   0   0     0   0   0     0   0   0     0  32   0     0   0   0     0   0   0
